<svg width="135" height="126" viewBox="0 0 135 126" fill="none" xmlns="http://www.w3.org/2000/svg">
<path d="M13.7129 38.8375L14.6543 40.3127C13.9043 40.7913 13.1576 41.354 12.5694 41.8774C12.2753 42.139 12.0391 42.3747 11.8679 42.5705C11.7201 42.7395 11.6612 42.8333 11.6476 42.8548C11.644 42.8606 11.6436 42.8612 11.6457 42.8566L11.6047 42.9471L11.5536 43.0325C11.1642 43.6833 10.5496 44.2638 9.92543 44.7007C9.30595 45.1344 8.52889 45.5307 7.69492 45.7096C7.50555 45.761 7.36189 45.8018 7.24476 45.8391C7.24133 45.9426 7.24121 46.086 7.24965 46.2804C7.27234 46.8026 7.34442 47.5109 7.45781 48.5341L7.45858 48.5413C8.04317 54.0239 11.8274 61.8605 18.1887 70.7255C24.5009 79.5221 33.1893 89.1106 43.2669 98.064L43.269 98.0659C48.6281 102.843 54.5099 107.826 59.1772 111.611C61.5127 113.505 63.531 115.088 65.0215 116.193C65.7581 116.738 66.3447 117.151 66.7673 117.424C66.7689 117.423 66.7704 117.422 66.7719 117.421C67.2179 117.15 67.8371 116.745 68.5922 116.227C70.0968 115.197 72.0735 113.771 74.1507 112.209C88.7831 101.186 101.403 89.3803 110.72 78.3519C120.082 67.2685 125.941 57.165 127.351 49.5377C127.438 49.0453 127.475 48.7357 127.479 48.5303C127.388 48.4847 127.25 48.4236 127.043 48.3442C126.198 48.0368 125.414 47.4425 124.808 46.8347C124.196 46.221 123.612 45.4394 123.274 44.6076C123.225 44.4941 123.179 44.3883 123.136 44.2893C122.886 43.7117 122.737 43.367 122.592 43.105C122.518 42.9703 122.473 42.9124 122.454 42.8909C122.452 42.8878 122.45 42.8855 122.448 42.8839C122.424 42.87 122.284 42.801 121.783 42.7202C121.349 42.6501 120.798 42.5916 120.011 42.5079C119.845 42.4903 119.668 42.4715 119.48 42.4513C119.477 42.451 119.474 42.4507 119.472 42.4505L115.677 42.0775L114.726 41.984L114.291 41.1335L111.451 35.5895L111.45 35.5869C108.215 29.2424 103.9 24.6964 98.943 22.2801L98.9348 22.2761C94.4029 20.0378 88.5482 19.8188 83.0164 21.3364C77.486 22.8537 72.529 26.0384 69.7145 30.2881C66.7324 34.8088 65.3619 39.5623 64.9972 47.6816L64.9967 47.6902C64.5635 56.3787 66.2213 62.4584 70.2451 67.7454L70.2464 67.7471C73.7677 72.3857 80.0747 75.6709 85.1404 75.6709C89.733 75.6709 93.1883 74.1483 94.9539 72.2493C95.8235 71.314 96.2565 70.3257 96.3173 69.3759C96.3771 68.4415 96.0887 67.3683 95.1973 66.2174C94.8531 65.7889 94.0126 64.9663 92.8414 63.9411C91.6963 62.9387 90.329 61.8236 89.0197 60.8389L89.012 60.8331L89.0043 60.8272C82.4654 55.7952 79.1352 51.5072 78.6165 46.0454L78.6162 46.0428C78.5017 44.8176 78.4657 43.7349 78.5779 42.9095C78.6319 42.5127 78.7408 42.0008 79.0175 41.5418C79.3388 41.0089 79.9626 40.4588 80.8816 40.4588C81.5666 40.4588 82.0853 40.7804 82.4078 41.0884C82.7223 41.3887 82.9266 41.7406 83.0606 42.0429C83.3306 42.6522 83.4535 43.373 83.4535 44.0818C83.4535 48.198 86.3257 52.5351 93.3757 57.3965C98.6429 60.9706 101.385 64.5761 101.385 69.2547C101.385 72.6434 99.505 75.5731 96.7624 77.6012C94.0175 79.631 90.3071 80.8532 86.2788 80.894L86.27 80.8941H86.2611C79.2966 80.8941 73.9361 78.6879 68.8389 73.8163L68.8288 73.8067L68.8189 73.7969C58.8703 63.9808 56.5811 48.7459 62.2731 32.9302C62.2737 32.9286 62.2742 32.927 62.2748 32.9255L63.6371 29.0758L61.4576 25.5167L61.4503 25.5047L61.4432 25.4926C58.2268 20.0457 52.819 14.4705 47.1308 10.7883L47.1248 10.7845L47.1189 10.7805C45.9515 10.0113 44.8339 9.32112 43.9427 8.80145C43.8449 9.70763 43.7628 10.8465 43.7035 12.0921C43.7034 12.0945 43.7033 12.097 43.7032 12.0994L43.4797 17.8531L43.4108 19.6262L41.6388 19.5327L37.3919 19.3085C37.3901 19.3085 37.3883 19.3084 37.3866 19.3083C33.6462 19.1371 30.7276 19.9405 28.1804 21.8683C25.5732 23.8415 23.2007 27.1085 20.8258 32.1645L20.8242 32.1679C18.7646 36.5278 17.3185 38.6208 14.6511 40.3148L13.7129 38.8375ZM13.7129 38.8375C14.3862 38.4099 14.9718 37.9553 15.5164 37.4128L5.75695 44.7435C6.02027 44.3703 6.50065 44.2193 7.28746 44.0069C8.40818 43.7822 9.60362 42.8831 10.0519 42.1339C10.4255 41.3098 12.0692 39.8864 13.7129 38.8375ZM44.2142 7.12366C44.2143 7.12328 44.2138 7.12473 44.2126 7.1282C44.2136 7.12551 44.2141 7.12396 44.2142 7.12366ZM36.3516 14.2371H38.8603V9.99354C38.8603 7.75982 38.9132 6.12836 39.0876 5.03533C39.1717 4.50841 39.3109 3.91051 39.6129 3.40579C39.977 2.79741 40.6412 2.24999 41.5816 2.24999C42.143 2.24999 42.7218 2.44888 43.1323 2.6093C43.6083 2.79533 44.1499 3.05138 44.7239 3.34933C45.8762 3.94749 47.267 4.77119 48.7181 5.70145C51.6115 7.55642 54.8712 9.91689 57.0955 11.9125L57.0968 11.9137C59.3732 13.9601 62.9037 18.0386 64.861 21.0946L67.2639 24.6586L68.4528 23.4996L68.4582 23.4943L68.4637 23.4891C72.096 20.0086 76.7247 17.6422 82.9141 16.0896C89.598 14.3466 95.9214 14.9283 101.555 17.7782C107.165 20.6162 111.951 25.6308 115.735 32.5199C115.736 32.522 115.737 32.524 115.738 32.5261L118.346 37.1811L122.203 37.5437C124.283 37.7146 126.049 37.9549 127.492 38.3796C128.954 38.8098 130.218 39.4674 131.146 40.5629C132.077 41.6622 132.506 43.0099 132.668 44.5032C132.827 45.9748 132.74 47.7166 132.532 49.7311L132.532 49.7336C132.198 52.9127 130.485 57.4205 128.125 62.126C125.736 66.8886 122.581 72.0522 119.194 76.5942L119.189 76.6005C113.336 84.3743 100.685 97.3539 90.6776 105.804C87.0938 108.83 81.5924 113.141 76.8822 116.69C74.5258 118.466 72.3534 120.062 70.7069 121.218C69.8864 121.794 69.179 122.273 68.6373 122.614C68.3697 122.782 68.1162 122.933 67.8964 123.048C67.7883 123.104 67.6587 123.168 67.5217 123.221L67.5175 123.223C67.4319 123.256 67.1326 123.373 66.7605 123.373C66.403 123.373 66.1 123.279 65.9288 123.219C65.7307 123.148 65.5369 123.059 65.3595 122.969C65.0039 122.787 64.5982 122.542 64.165 122.258C63.2925 121.688 62.1807 120.879 60.9032 119.901C58.3413 117.94 55.0192 115.221 51.4306 112.168C44.2567 106.064 35.941 98.5548 30.4012 92.9621L30.4005 92.9614C20.9356 83.3952 13.9197 74.8741 9.26262 67.1421C4.60569 59.4104 2.25 52.3723 2.25 45.805C2.25 44.4249 2.2778 43.2651 2.36457 42.3093C2.44967 41.372 2.60081 40.5046 2.91302 39.7717C3.25008 38.9805 3.78807 38.3196 4.5987 37.9107C5.33912 37.5372 6.14015 37.4621 6.83917 37.4621C7.09561 37.4621 7.73444 37.3568 8.61853 37.0882C9.45921 36.8327 10.3634 36.478 11.1085 36.0882L11.1304 36.0767L11.1525 36.0659C12.4447 35.4356 13.0809 35.007 13.6882 34.2694C14.3663 33.4459 15.068 32.1637 16.2333 29.6384L16.2366 29.6312L16.2399 29.6241C18.6575 24.5063 21.3822 20.6611 24.6971 18.0883C28.0515 15.4849 31.8903 14.2777 36.3356 14.2372L36.3436 14.2371H36.3516ZM114.567 33.9942L114.568 33.9961L100.482 19.1366C100.483 19.137 100.484 19.1375 100.485 19.1379L100.46 19.1881C105.808 21.7979 110.472 26.5709 114.204 33.3684L114.558 33.9988L114.567 33.9942ZM114.568 33.9968L114.559 34.0014L117.279 38.7181L117.196 38.71L114.691 34.2377L114.568 33.9968ZM112.706 34.2078C112.808 34.401 112.909 34.5956 113.009 34.7918L99.7098 20.707C104.926 23.2494 109.369 27.9048 112.699 34.195C112.701 34.1993 112.703 34.2036 112.706 34.2078Z" fill="#EDFFEA" stroke="#EDFFEA" stroke-width="3.5"/>
<path d="M28.1111 43.3836L28.0875 43.3931L28.0635 43.4018C25.8731 44.2072 23.9897 42.8412 23.1201 41.4878C22.245 40.1257 21.7949 37.844 23.4561 36.1783C24.0185 35.6143 24.795 35.4345 25.2568 35.3651C25.8157 35.281 26.4455 35.2841 27.0656 35.3866C29.123 35.7106 30.0699 37.6259 30.2819 39.0017C30.4943 40.3796 30.1582 42.5625 28.1111 43.3836Z" fill="#EDFFEA" stroke="#EDFFEA" stroke-width="3.5"/>
<path d="M100.405 37.3443L100.418 37.3348L100.431 37.3256C101.564 36.5392 102.786 35.9917 104.175 36.0213C105.547 36.0506 106.784 36.6376 107.97 37.4854C108.64 37.9567 109.206 38.4918 109.568 39.0814C109.864 39.5633 110.362 40.694 109.606 41.7542C108.873 42.7831 107.672 42.7242 107.124 42.6265C106.445 42.5057 105.737 42.183 105.044 41.7356C104.379 41.3153 104.154 41.2703 104.088 41.2641C104.087 41.2641 104.087 41.264 104.087 41.264C104.074 41.262 103.944 41.2427 103.448 41.5056C102.799 41.8536 102.141 42.0934 101.515 42.1737C100.99 42.2409 100.024 42.2485 99.3028 41.5252C98.3919 40.6122 98.6725 39.4543 98.9857 38.8606C99.3023 38.2606 99.8318 37.7578 100.405 37.3443ZM107.744 39.1817C107.744 39.1817 107.742 39.1814 107.739 39.181C107.742 39.1816 107.744 39.1818 107.744 39.1817ZM106.587 40.9144C106.586 40.9141 106.586 40.9138 106.586 40.9135L106.587 40.9144ZM101.055 38.7035C101.055 38.7036 101.056 38.7035 101.059 38.7033L101.055 38.7035Z" fill="#EDFFEA" stroke="#EDFFEA" stroke-width="3.5"/>
</svg>
